<svg version="1.1" xmlns="http://www.w3.org/2000/svg" x="0px" y="0px" width="24px" height="24px" viewBox="0 0 24 24" xml:space="preserve"><title>cross</title><g transform="matrix(1,0,0,1,0,0)"><path fill="var(--color-black)" d="M3.5,3.5c-0.6,0.6-0.6,1.5,0,2.1l6.2,6.2c0.1,0.1,0.1,0.3,0,0.4l-6.2,6.2c-0.6,0.6-0.6,1.5,0,2.1c0.6,0.6,1.5,0.6,2.1,0l6.2-6.2c0.1-0.1,0.3-0.1,0.4,0l6.2,6.2c0.6,0.6,1.5,0.6,2.1,0c0.6-0.6,0.6-1.5,0-2.1l-6.2-6.2c-0.1-0.1-0.1-0.3,0-0.4l6.2-6.2c0.6-0.6,0.6-1.5,0-2.1c-0.6-0.6-1.5-0.6-2.1,0l-6.2,6.2c-0.1,0.1-0.3,0.1-0.4,0L5.6,3.5C5.1,2.9,4.1,2.9,3.5,3.5z"></path></g></svg>