<svg xmlns="http://www.w3.org/2000/svg" version="1.1" viewBox="0 0 140 140" width="140" height="140"><title>pictures</title><g transform="matrix(5.833333333333333,0,0,5.833333333333333,0,0)" fill="none"><path d="M18.75,5.25V4.272a2.011,2.011,0,0,0-2-2.022h-14a2.011,2.011,0,0,0-2,2.022v9.456a2.011,2.011,0,0,0,2,2.022" fill="none" stroke="#ffffff" stroke-linecap="round" stroke-linejoin="round" stroke-width="1.5"></path><path d="M11.339,21.75l4.439-6.307a1.5,1.5,0,0,1,2.357-.128l4.938,5.643" fill="none" stroke="#ffffff" stroke-linecap="round" stroke-linejoin="round" stroke-width="1.5"></path><path d="M10.875,12.75a.375.375,0,1,1-.375.375.375.375,0,0,1,.375-.375" fill="none" stroke="#ffffff" stroke-linecap="round" stroke-linejoin="round" stroke-width="1.5"></path><path d="M6.000 8.250 L23.250 8.250 L23.250 21.750 L6.000 21.750 Z" fill="none" stroke="#ffffff" stroke-linecap="round" stroke-linejoin="round" stroke-width="1.5"></path></g></svg>