<?xml version="1.0" encoding="UTF-8"?> <svg xmlns="http://www.w3.org/2000/svg" id="AW" viewBox="0 0 748.71 151.6"><defs><style>.cls-1{fill:#da291c;}.cls-2{fill:#0072ce;}.cls-3{fill:#fff;}.cls-4{fill:none;}</style></defs><title>TWW_logo_hrz_RGB_neg</title><path class="cls-1" d="M147.64,49.21,129.06,69.28c7.36,17.2,23.87,29.19,43.07,29.19,26.05,0,47.16-22,47.16-49.26Z"></path><polygon class="cls-2" points="98.42 102.39 147.63 49.21 49.21 49.21 98.42 102.39"></polygon><path class="cls-3" d="M271.59,75.79l-8.22-22.87h3.27c1.86,5.16,4.61,13,6.47,18.16l5.19-18.16h2.82l5.2,18.16c1.85-5.13,4.61-13,6.46-18.16h3.27l-8.22,22.87h-3l-5.13-18.51-5.13,18.51Z"></path><path class="cls-3" d="M324.09,75.79h-2.82V65.44H305.14V75.79h-2.82V52.92h2.82v9.66h16.13V52.92h2.82Z"></path><path class="cls-3" d="M333.45,75.79V52.92h2.82V75.79Z"></path><path class="cls-3" d="M366.3,55.7H355.61V75.79h-2.82V55.7h-10.7V52.92H366.3Z"></path><path class="cls-3" d="M370.13,69.84l2.44-1c1,4,5.3,4.85,9.15,4.85,3.37,0,8.63-1,8.63-4.89,0-6.84-20.09.18-20.09-9.32,0-5.71,6.92-7.36,11.32-7.36,4.89,0,10.32,1.1,11.39,6.81l-2.44,1c-1-4-5.27-5-9.12-5-3.48,0-7.88,1.06-7.88,4.4,0,6,19.88-.21,19.88,9.36,0,6.15-6.39,8-11.42,8S371.19,75.55,370.13,69.84Z"></path><path class="cls-3" d="M400.09,67.33V52.92h2.82V66.75c0,4.36,2.86,7,8.29,7s8.29-2.65,8.29-7V52.92h2.82V67.33c0,5.54-4.16,9.29-11.11,9.29S400.09,72.87,400.09,67.33Z"></path><path class="cls-3" d="M453.83,75.79h-3l-17-18.54V75.79H431V52.92h2.86L451,71.66V52.92h2.82Z"></path><path class="cls-3" d="M486,63.68c0,6.95-4.51,12.11-11.49,12.11H463.19V52.92l11.35-.07C481.35,52.81,486,57.28,486,63.68Zm-12.32,9.4c5.75,0,9.25-3.82,9.25-9.29,0-5-3.57-8.23-9.22-8.23-3.33,0-6.53.07-7.7.07V73.11Z"></path><path class="cls-3" d="M508.53,68.19H495.8l-3.75,7.6h-3l11.24-22.87h3.79l11.25,22.87h-3Zm-11.39-2.75h10l-4.79-9.74H502Z"></path><path class="cls-3" d="M539.94,52.92c-3.16,4.16-8.36,11.07-11.52,15.2v7.67h-3.17V68.12c-3.16-4.13-8.36-11-11.52-15.2h3.61l9.5,12.72,9.49-12.72Z"></path><path class="cls-3" d="M541.87,69.84l2.44-1c1,4,5.3,4.85,9.15,4.85,3.38,0,8.64-1,8.64-4.89C562.1,62,542,69,542,59.52c0-5.71,6.91-7.36,11.32-7.36,4.88,0,10.32,1.1,11.38,6.81l-2.44,1c-1-4-5.26-5-9.12-5-3.47,0-7.87,1.06-7.87,4.4,0,6,19.88-.21,19.88,9.36,0,6.15-6.4,8-11.42,8S542.94,75.55,541.87,69.84Z"></path><path class="cls-3" d="M588.62,75.79,580.4,52.92h3.27c1.86,5.16,4.61,13,6.47,18.16l5.19-18.16h2.82l5.2,18.16c1.86-5.13,4.61-13,6.47-18.16h3.26l-8.22,22.87h-3l-5.13-18.51-5.12,18.51Z"></path><path class="cls-3" d="M640.4,75.79h-21V52.92h20.4V55.7H622.13v6.92h14.8v2.85h-14.8V73H640.4Z"></path><path class="cls-3" d="M668.13,75.79h-21V52.92h20.4V55.7H649.86v6.92h14.8v2.85h-14.8V73h18.27Z"></path><path class="cls-3" d="M697.89,73.42a3.17,3.17,0,0,0,1.17-.24l.1,2.75c-5.5,1.79-8.87-3.92-14.82-11.56l-6.75,5.06v6.36h-2.82V52.92h2.82V66.09L695.1,52.92h4.41l-12.84,9.66C691.32,69.63,695.07,73.42,697.89,73.42Z"></path><rect class="cls-4" width="748.71" height="151.6"></rect></svg> 