<svg xmlns="http://www.w3.org/2000/svg" id="AW" viewBox="0 0 748.71 151.6"><defs><style>.cls-1{fill:#d6d6d6;}.cls-2{fill:#fff;}.cls-3{fill:none;}</style></defs><title>TWW_logo_hrz_gray_neg</title><path class="cls-1" d="M147.64,49.21,129.06,69.28c7.36,17.2,23.87,29.19,43.07,29.19,26.05,0,47.16-22,47.16-49.26Z"/><polygon class="cls-2" points="98.42 102.39 147.63 49.21 49.21 49.21 98.42 102.39"/><path class="cls-2" d="M271.59,75.79l-8.22-22.87h3.27c1.86,5.16,4.61,13,6.47,18.16l5.19-18.16h2.82l5.2,18.16c1.85-5.13,4.61-13,6.46-18.16h3.27l-8.22,22.87h-3l-5.13-18.51-5.13,18.51Z"/><path class="cls-2" d="M324.09,75.79h-2.82V65.44H305.14V75.79h-2.83V52.92h2.83v9.66h16.13V52.92h2.82Z"/><path class="cls-2" d="M333.45,75.79V52.92h2.82V75.79Z"/><path class="cls-2" d="M366.3,55.7H355.6V75.79h-2.82V55.7h-10.7V52.92H366.3Z"/><path class="cls-2" d="M370.12,69.84l2.45-1c1,4,5.29,4.85,9.15,4.85,3.37,0,8.63-1,8.63-4.89,0-6.84-20.09.18-20.09-9.32,0-5.71,6.92-7.36,11.32-7.36,4.88,0,10.32,1.1,11.38,6.81l-2.44,1c-1-4-5.26-5-9.11-5-3.48,0-7.88,1.06-7.88,4.4,0,6,19.88-.21,19.88,9.36,0,6.16-6.4,8-11.42,8S371.19,75.55,370.12,69.84Z"/><path class="cls-2" d="M400.09,67.33V52.92h2.82V66.75c0,4.36,2.85,7,8.29,7s8.29-2.65,8.29-7V52.92h2.82V67.33c0,5.54-4.16,9.29-11.11,9.29S400.09,72.87,400.09,67.33Z"/><path class="cls-2" d="M453.82,75.79h-2.95l-17-18.54V75.79H431V52.92h2.85L451,71.66V52.92h2.82Z"/><path class="cls-2" d="M486,63.68c0,6.95-4.51,12.11-11.49,12.11H463.18V52.92l11.35-.07C481.35,52.81,486,57.28,486,63.68Zm-12.32,9.4c5.75,0,9.26-3.82,9.26-9.29,0-5-3.58-8.23-9.22-8.23-3.34,0-6.54.07-7.71.07V73.11Z"/><path class="cls-2" d="M508.52,68.19H495.8l-3.75,7.6h-3l11.25-22.87h3.78L515.3,75.79h-3Zm-11.38-2.75h10l-4.78-9.74H502Z"/><path class="cls-2" d="M539.93,52.92c-3.16,4.16-8.35,11.07-11.52,15.2v7.67h-3.16V68.12c-3.17-4.13-8.36-11-11.53-15.2h3.61l9.5,12.72,9.49-12.72Z"/><path class="cls-2" d="M541.86,69.84l2.45-1c1,4,5.29,4.85,9.15,4.85,3.37,0,8.63-1,8.63-4.89C562.09,62,542,69,542,59.52c0-5.71,6.92-7.36,11.32-7.36,4.88,0,10.32,1.1,11.39,6.81l-2.45,1c-1-4-5.26-5-9.11-5-3.48,0-7.88,1.06-7.88,4.4,0,6,19.88-.21,19.88,9.36,0,6.16-6.4,8-11.42,8S542.93,75.55,541.86,69.84Z"/><path class="cls-2" d="M588.62,75.79l-8.23-22.87h3.27c1.86,5.16,4.61,13,6.47,18.16l5.19-18.16h2.83l5.19,18.16c1.86-5.13,4.61-13,6.47-18.16h3.27l-8.23,22.87h-3l-5.13-18.51-5.12,18.51Z"/><path class="cls-2" d="M640.39,75.79h-21V52.92h20.4V55.7H622.13v6.92h14.79v2.85H622.13V73h18.26Z"/><path class="cls-2" d="M668.12,75.79h-21V52.92h20.4V55.7H649.85v6.92h14.8v2.85h-14.8V73h18.27Z"/><path class="cls-2" d="M697.88,73.42a3.21,3.21,0,0,0,1.17-.24l.1,2.75c-5.5,1.79-8.87-3.92-14.82-11.56l-6.75,5.06v6.36h-2.82V52.92h2.82V66.09l17.51-13.17h4.41l-12.84,9.66C691.31,69.63,695.06,73.42,697.88,73.42Z"/><rect class="cls-3" width="748.71" height="151.6"/></svg>