<svg id="AW" xmlns="http://www.w3.org/2000/svg" viewBox="0 0 438.58 276.01"><defs><style>.cls-1{fill:#da291c;}.cls-2{fill:#0072ce;}.cls-3{fill:#fff;}.cls-4{fill:none;}</style></defs><title>TWW_logo_vert_RGB_neg</title><path class="cls-1" d="M246.06,49.21,208.91,89.35c14.72,34.39,47.73,58.37,86.14,58.37,52.09,0,94.32-44.1,94.32-98.51Z"/><polygon class="cls-2" points="147.63 155.56 246.06 49.21 49.21 49.21 147.63 155.56"/><path class="cls-3" d="M59,226.14l-6.28-17.49h2.5c1.42,3.95,3.52,10,4.94,13.89l4-13.89h2.16l4,13.89c1.42-3.92,3.52-9.94,4.94-13.89h2.5l-6.28,17.49H69.12L65.2,212l-3.92,14.15Z"/><path class="cls-3" d="M99.11,226.14H97v-7.92H84.62v7.92H82.47V208.65h2.15V216H97v-7.39h2.15Z"/><path class="cls-3" d="M106.26,226.14V208.65h2.15v17.49Z"/><path class="cls-3" d="M131.37,210.78h-8.18v15.36H121V210.78h-8.18v-2.13h18.52Z"/><path class="cls-3" d="M134.28,221.59l1.87-.74c.78,3.06,4,3.71,7,3.71,2.58,0,6.6-.73,6.6-3.73,0-5.23-15.36.13-15.36-7.13,0-4.36,5.29-5.63,8.66-5.63,3.73,0,7.89.84,8.7,5.21l-1.87.74c-.79-3.05-4-3.87-7-3.87-2.65,0-6,.82-6,3.37,0,4.6,15.2-.16,15.2,7.15,0,4.71-4.89,6.13-8.73,6.13S135.09,226,134.28,221.59Z"/><path class="cls-3" d="M157.18,219.67v-11h2.15v10.57c0,3.34,2.18,5.37,6.34,5.37s6.34-2,6.34-5.37V208.65h2.15v11c0,4.24-3.18,7.1-8.49,7.1S157.18,223.91,157.18,219.67Z"/><path class="cls-3" d="M198.24,226.14H196L183,212v14.17h-2.16V208.65H183L196.09,223V208.65h2.15Z"/><path class="cls-3" d="M222.82,216.88c0,5.32-3.44,9.26-8.78,9.26h-8.65V208.65l8.68-.05C219.27,208.57,222.82,212,222.82,216.88Zm-9.41,7.18c4.39,0,7.07-2.92,7.07-7.1,0-3.81-2.73-6.28-7-6.28-2.56,0-5,0-5.9,0v13.36Z"/><path class="cls-3" d="M240,220.33h-9.73l-2.87,5.81h-2.31l8.6-17.49h2.89l8.6,17.49h-2.31Zm-8.7-2.11H239l-3.66-7.44H235Z"/><path class="cls-3" d="M264,208.65c-2.41,3.18-6.39,8.47-8.81,11.63v5.86h-2.42v-5.86c-2.41-3.16-6.39-8.45-8.81-11.63h2.77l7.25,9.73,7.26-9.73Z"/><path class="cls-3" d="M265.51,221.59l1.87-.74c.78,3.06,4.05,3.71,7,3.71,2.58,0,6.6-.73,6.6-3.73,0-5.23-15.36.13-15.36-7.13,0-4.36,5.29-5.63,8.66-5.63,3.73,0,7.89.84,8.7,5.21l-1.87.74c-.78-3.05-4-3.87-7-3.87-2.66,0-6,.82-6,3.37,0,4.6,15.2-.16,15.2,7.15,0,4.71-4.89,6.13-8.73,6.13S266.32,226,265.51,221.59Z"/><path class="cls-3" d="M301.24,226.14,295,208.65h2.5c1.42,3.95,3.52,10,4.94,13.89l4-13.89h2.16l4,13.89c1.42-3.92,3.53-9.94,4.95-13.89h2.49l-6.28,17.49h-2.29L307.44,212l-3.92,14.15Z"/><path class="cls-3" d="M340.8,226.14H324.71V208.65H340.3v2.13H326.84v5.29h11.31v2.18H326.84V224h14Z"/><path class="cls-3" d="M362,226.14H345.9V208.65h15.59v2.13H348v5.29h11.3v2.18H348V224h14Z"/><path class="cls-3" d="M384.73,224.33a2.32,2.32,0,0,0,.89-.19l.08,2.11c-4.2,1.36-6.78-3-11.33-8.84l-5.15,3.86v4.87h-2.16V208.65h2.16v10.07l13.38-10.07H386L376.16,216C379.71,221.43,382.57,224.33,384.73,224.33Z"/><rect class="cls-4" width="438.58" height="276.01"/></svg>