<svg xmlns="http://www.w3.org/2000/svg" version="1.1" viewBox="0 0 24 24" height="24" width="24"><title>play</title><g transform="matrix(1,0,0,1,0,0)"><path d="M12,0C5.373,0,0,5.373,0,12s5.373,12,12,12s12-5.373,12-12C23.993,5.376,18.624,0.007,12,0z M16.828,12.894l-7.381,3.69 l0,0c-0.494,0.247-1.095,0.047-1.342-0.448C8.036,15.998,8,15.845,8,15.69V8.308c0-0.552,0.448-1,1-1 c0.155,0,0.307,0.036,0.446,0.105l7.383,3.687c0.495,0.245,0.698,0.845,0.453,1.34c-0.097,0.197-0.257,0.356-0.454,0.453V12.894z" stroke="none" fill="#ffffff" stroke-width="0" stroke-linecap="round" stroke-linejoin="round"></path></g></svg>