<svg xmlns="http://www.w3.org/2000/svg" version="1.1" viewBox="0 0 26 26" width="26" height="26"><title>time-outline</title><g transform="matrix(1.0833333333333333,0,0,1.0833333333333333,0,0)"><path d="M12,0C5.373,0,0,5.373,0,12s5.373,12,12,12s12-5.373,12-12C23.992,5.376,18.624,0.008,12,0z M12,22C6.477,22,2,17.523,2,12 S6.477,2,12,2s10,4.477,10,10C21.994,17.52,17.52,21.994,12,22z M17.134,15.81L12.5,11.561V6.5c0-0.552-0.448-1-1-1s-1,0.448-1,1 V12c0,0.281,0.117,0.548,0.324,0.738l4.959,4.545c0.409,0.368,1.037,0.341,1.413-0.061C17.568,16.815,17.541,16.183,17.134,15.81z" stroke="none" fill="var(--color-contrast-high)" stroke-width="0" stroke-linecap="round" stroke-linejoin="round"></path></g></svg>