<?xml version="1.0" standalone="no"?>
<!DOCTYPE svg PUBLIC "-//W3C//DTD SVG 20010904//EN"
 "http://www.w3.org/TR/2001/REC-SVG-20010904/DTD/svg10.dtd">
<svg version="1.0" xmlns="http://www.w3.org/2000/svg"
 width="510.000000pt" height="510.000000pt" viewBox="0 0 510.000000 510.000000"
 preserveAspectRatio="xMidYMid meet">
<metadata>
Created by potrace 1.11, written by Peter Selinger 2001-2013
</metadata>
<g transform="translate(0.000000,510.000000) scale(0.100000,-0.100000)"
fill="#000000" stroke="none">
<path d="M22 3312 c14 -15 344 -371 733 -792 389 -421 711 -766 715 -768 4 -2
213 220 465 492 l457 494 48 -93 c66 -129 140 -233 244 -343 210 -219 484
-366 775 -416 121 -21 330 -21 452 0 632 106 1119 653 1179 1324 5 63 10 118
10 123 0 4 -1148 7 -2552 7 l-2552 0 26 -28z"/>
</g>
</svg>
